<?xml version="1.0" encoding="UTF-8" standalone="no"?>
<!DOCTYPE svg PUBLIC "-//W3C//DTD SVG 1.1//EN"
 "http://www.w3.org/Graphics/SVG/1.1/DTD/svg11.dtd">
<!-- Generated by graphviz version 2.38.0 (20140413.2041)
 -->
<!-- Title: %3 Pages: 1 -->
<svg width="642pt" height="221pt"
 viewBox="0.00 0.00 642.00 221.00" xmlns="http://www.w3.org/2000/svg" xmlns:xlink="http://www.w3.org/1999/xlink">
<g id="graph0" class="graph" transform="scale(1 1) rotate(0) translate(4 217)">
<title>%3</title>
<polygon fill="white" stroke="none" points="-4,4 -4,-217 638,-217 638,4 -4,4"/>
<!-- 1 -->
<g id="node1" class="node"><title>1</title>
<ellipse fill="none" stroke="black" cx="27" cy="-130" rx="27" ry="18"/>
<text text-anchor="middle" x="27" y="-126.3" font-family="Times,serif" font-size="14.00">1</text>
</g>
<!-- 2 -->
<g id="node2" class="node"><title>2</title>
<ellipse fill="none" stroke="black" cx="122" cy="-130" rx="27" ry="18"/>
<text text-anchor="middle" x="122" y="-126.3" font-family="Times,serif" font-size="14.00">2</text>
</g>
<!-- 1&#45;&gt;2 -->
<g id="edge1" class="edge"><title>1&#45;&gt;2</title>
<path fill="none" stroke="black" d="M54.4013,-130C63.8074,-130 74.5721,-130 84.665,-130"/>
<polygon fill="black" stroke="black" points="84.8546,-133.5 94.8546,-130 84.8545,-126.5 84.8546,-133.5"/>
<text text-anchor="middle" x="74.5" y="-133.8" font-family="Times,serif" font-size="14.00">&#45;</text>
</g>
<!-- 3 -->
<g id="node3" class="node"><title>3</title>
<ellipse fill="none" stroke="black" cx="219" cy="-18" rx="27" ry="18"/>
<text text-anchor="middle" x="219" y="-14.3" font-family="Times,serif" font-size="14.00">3</text>
</g>
<!-- 1&#45;&gt;3 -->
<g id="edge2" class="edge"><title>1&#45;&gt;3</title>
<path fill="none" stroke="black" d="M46.9278,-117.835C60.2747,-109.33 78.6197,-97.7892 95,-88 126.606,-69.1118 163.357,-48.3506 188.399,-34.3814"/>
<polygon fill="black" stroke="black" points="190.352,-37.2998 197.388,-29.3782 186.948,-31.1833 190.352,-37.2998"/>
<text text-anchor="middle" x="122" y="-91.8" font-family="Times,serif" font-size="14.00">d</text>
</g>
<!-- 4 -->
<g id="node4" class="node"><title>4</title>
<ellipse fill="none" stroke="black" cx="316" cy="-130" rx="27" ry="18"/>
<text text-anchor="middle" x="316" y="-126.3" font-family="Times,serif" font-size="14.00">4</text>
</g>
<!-- 1&#45;&gt;4 -->
<g id="edge3" class="edge"><title>1&#45;&gt;4</title>
<path fill="none" stroke="black" d="M46.4424,-142.87C83.7243,-167.294 170.902,-216.359 246,-198 269.095,-192.354 287.723,-172.21 299.776,-155.3"/>
<polygon fill="black" stroke="black" points="302.786,-157.096 305.468,-146.846 296.98,-153.186 302.786,-157.096"/>
<text text-anchor="middle" x="170.5" y="-201.8" font-family="Times,serif" font-size="14.00">a</text>
</g>
<!-- 2&#45;&gt;3 -->
<g id="edge4" class="edge"><title>2&#45;&gt;3</title>
<path fill="none" stroke="black" d="M135.554,-114.276C144.274,-103.434 156.217,-88.7373 167,-76 176.803,-64.4197 187.904,-51.7448 197.241,-41.2055"/>
<polygon fill="black" stroke="black" points="199.959,-43.4157 203.986,-33.6158 194.727,-38.7657 199.959,-43.4157"/>
<text text-anchor="middle" x="170.5" y="-79.8" font-family="Times,serif" font-size="14.00">d</text>
</g>
<!-- 2&#45;&gt;4 -->
<g id="edge5" class="edge"><title>2&#45;&gt;4</title>
<path fill="none" stroke="black" d="M148.12,-125.016C161.153,-122.68 177.368,-120.159 192,-119 215.925,-117.105 222.075,-117.105 246,-119 257.088,-119.878 269.086,-121.539 279.918,-123.308"/>
<polygon fill="black" stroke="black" points="279.432,-126.776 289.88,-125.016 280.615,-119.876 279.432,-126.776"/>
<text text-anchor="middle" x="219" y="-122.8" font-family="Times,serif" font-size="14.00">a</text>
</g>
<!-- 3&#45;&gt;3 -->
<g id="edge6" class="edge"><title>3&#45;&gt;3</title>
<path fill="none" stroke="black" d="M210.431,-35.4099C208.831,-45.0879 211.688,-54 219,-54 223.57,-54 226.4,-50.5187 227.489,-45.5449"/>
<polygon fill="black" stroke="black" points="230.99,-45.4374 227.569,-35.4099 223.99,-45.3818 230.99,-45.4374"/>
<text text-anchor="middle" x="219" y="-57.8" font-family="Times,serif" font-size="14.00">d</text>
</g>
<!-- 3&#45;&gt;4 -->
<g id="edge7" class="edge"><title>3&#45;&gt;4</title>
<path fill="none" stroke="black" d="M234.014,-33.6158C244.352,-45.2119 258.698,-61.4678 271,-76 279.34,-85.8515 288.374,-96.8751 296.074,-106.381"/>
<polygon fill="black" stroke="black" points="293.442,-108.693 302.446,-114.276 298.889,-104.296 293.442,-108.693"/>
<text text-anchor="middle" x="267.5" y="-79.8" font-family="Times,serif" font-size="14.00">a</text>
</g>
<!-- 5 -->
<g id="node5" class="node"><title>5</title>
<ellipse fill="none" stroke="black" cx="415" cy="-58" rx="27" ry="18"/>
<text text-anchor="middle" x="415" y="-54.3" font-family="Times,serif" font-size="14.00">5</text>
</g>
<!-- 3&#45;&gt;5 -->
<g id="edge8" class="edge"><title>3&#45;&gt;5</title>
<path fill="none" stroke="black" d="M244.965,-23.1474C278.921,-30.1486 339.857,-42.7127 378.543,-50.6893"/>
<polygon fill="black" stroke="black" points="378.323,-54.2174 388.824,-52.809 379.736,-47.3616 378.323,-54.2174"/>
<text text-anchor="middle" x="316" y="-46.8" font-family="Times,serif" font-size="14.00">=</text>
</g>
<!-- 4&#45;&gt;2 -->
<g id="edge9" class="edge"><title>4&#45;&gt;2</title>
<path fill="none" stroke="black" d="M301.847,-145.533C293.796,-154.044 282.796,-164.044 271,-170 260.885,-175.108 257.276,-173.883 246,-175 210.99,-178.467 198.405,-185.858 167,-170 158.522,-165.719 150.455,-159.349 143.598,-152.944"/>
<polygon fill="black" stroke="black" points="145.71,-150.107 136.153,-145.533 140.771,-155.068 145.71,-150.107"/>
<text text-anchor="middle" x="219" y="-182.8" font-family="Times,serif" font-size="14.00">&#45;</text>
</g>
<!-- 4&#45;&gt;2 -->
<g id="edge10" class="edge"><title>4&#45;&gt;2</title>
<path fill="none" stroke="black" d="M289.449,-133.399C283.411,-134.064 276.987,-134.661 271,-135 224.852,-137.614 213.148,-137.614 167,-135 164.287,-134.846 161.485,-134.64 158.669,-134.398"/>
<polygon fill="black" stroke="black" points="158.847,-130.899 148.551,-133.399 158.159,-137.865 158.847,-130.899"/>
<text text-anchor="middle" x="219" y="-139.8" font-family="Times,serif" font-size="14.00">+</text>
</g>
<!-- 4&#45;&gt;4 -->
<g id="edge11" class="edge"><title>4&#45;&gt;4</title>
<path fill="none" stroke="black" d="M307.431,-147.41C305.831,-157.088 308.688,-166 316,-166 320.57,-166 323.4,-162.519 324.489,-157.545"/>
<polygon fill="black" stroke="black" points="327.99,-157.437 324.569,-147.41 320.99,-157.382 327.99,-157.437"/>
<text text-anchor="middle" x="316" y="-169.8" font-family="Times,serif" font-size="14.00">a, d</text>
</g>
<!-- 4&#45;&gt;5 -->
<g id="edge12" class="edge"><title>4&#45;&gt;5</title>
<path fill="none" stroke="black" d="M334.791,-116.794C349.695,-105.731 371.172,-89.7901 388.003,-77.2969"/>
<polygon fill="black" stroke="black" points="390.378,-79.8928 396.321,-71.1222 386.206,-74.272 390.378,-79.8928"/>
<text text-anchor="middle" x="365.5" y="-99.8" font-family="Times,serif" font-size="14.00">=</text>
</g>
<!-- 6 -->
<g id="node6" class="node"><title>6</title>
<ellipse fill="none" stroke="black" cx="510" cy="-93" rx="27" ry="18"/>
<text text-anchor="middle" x="510" y="-89.3" font-family="Times,serif" font-size="14.00">6</text>
</g>
<!-- 5&#45;&gt;6 -->
<g id="edge13" class="edge"><title>5&#45;&gt;6</title>
<path fill="none" stroke="black" d="M438.989,-66.6517C450.279,-70.9005 464.078,-76.0937 476.431,-80.743"/>
<polygon fill="black" stroke="black" points="475.361,-84.0799 485.953,-84.3265 477.827,-77.5285 475.361,-84.0799"/>
<text text-anchor="middle" x="462.5" y="-78.8" font-family="Times,serif" font-size="14.00">&#45;</text>
</g>
<!-- 7 -->
<g id="node7" class="node"><title>7</title>
<ellipse fill="none" stroke="black" cx="607" cy="-63" rx="27" ry="18"/>
<text text-anchor="middle" x="607" y="-59.3" font-family="Times,serif" font-size="14.00">7</text>
</g>
<!-- 5&#45;&gt;7 -->
<g id="edge14" class="edge"><title>5&#45;&gt;7</title>
<path fill="none" stroke="black" d="M441.722,-54.6796C454.166,-53.2352 469.335,-51.7119 483,-51 506.967,-49.7514 513.089,-48.9363 537,-51 548.2,-51.9666 560.309,-53.8002 571.211,-55.7484"/>
<polygon fill="black" stroke="black" points="570.75,-59.2229 581.224,-57.6269 572.041,-52.3429 570.75,-59.2229"/>
<text text-anchor="middle" x="510" y="-54.8" font-family="Times,serif" font-size="14.00">d</text>
</g>
<!-- 6&#45;&gt;7 -->
<g id="edge15" class="edge"><title>6&#45;&gt;7</title>
<path fill="none" stroke="black" d="M534.973,-85.4297C546.423,-81.8139 560.313,-77.4274 572.763,-73.4959"/>
<polygon fill="black" stroke="black" points="573.882,-76.8128 582.364,-70.4639 571.774,-70.1378 573.882,-76.8128"/>
<text text-anchor="middle" x="558.5" y="-81.8" font-family="Times,serif" font-size="14.00">d</text>
</g>
<!-- 7&#45;&gt;7 -->
<g id="edge16" class="edge"><title>7&#45;&gt;7</title>
<path fill="none" stroke="black" d="M598.431,-80.4099C596.831,-90.0879 599.688,-99 607,-99 611.57,-99 614.4,-95.5187 615.489,-90.5449"/>
<polygon fill="black" stroke="black" points="618.99,-90.4374 615.569,-80.4099 611.99,-90.3818 618.99,-90.4374"/>
<text text-anchor="middle" x="607" y="-102.8" font-family="Times,serif" font-size="14.00">d</text>
</g>
</g>
</svg>
