<?xml version="1.0" encoding="UTF-8" standalone="no"?>
<!DOCTYPE svg PUBLIC "-//W3C//DTD SVG 1.1//EN"
 "http://www.w3.org/Graphics/SVG/1.1/DTD/svg11.dtd">
<!-- Generated by graphviz version 2.38.0 (20140413.2041)
 -->
<!-- Title: %3 Pages: 1 -->
<svg width="561pt" height="128pt"
 viewBox="0.00 0.00 561.00 128.00" xmlns="http://www.w3.org/2000/svg" xmlns:xlink="http://www.w3.org/1999/xlink">
<g id="graph0" class="graph" transform="scale(1 1) rotate(0) translate(4 124)">
<title>%3</title>
<polygon fill="white" stroke="none" points="-4,4 -4,-124 557,-124 557,4 -4,4"/>
<!-- 1 -->
<g id="node1" class="node"><title>1</title>
<ellipse fill="none" stroke="black" cx="27" cy="-34" rx="27" ry="18"/>
<text text-anchor="middle" x="27" y="-30.3" font-family="Times,serif" font-size="14.00">1</text>
</g>
<!-- 2 -->
<g id="node2" class="node"><title>2</title>
<ellipse fill="none" stroke="black" cx="124" cy="-69" rx="27" ry="18"/>
<text text-anchor="middle" x="124" y="-65.3" font-family="Times,serif" font-size="14.00">2</text>
</g>
<!-- 1&#45;&gt;2 -->
<g id="edge1" class="edge"><title>1&#45;&gt;2</title>
<path fill="none" stroke="black" d="M42.918,-48.7972C50.86,-55.6735 61.2028,-63.1642 72,-67 76.6602,-68.6556 81.7125,-69.6843 86.7644,-70.2808"/>
<polygon fill="black" stroke="black" points="86.7981,-73.7907 97.0079,-70.9607 87.2617,-66.806 86.7981,-73.7907"/>
<text text-anchor="middle" x="75.5" y="-71.8" font-family="Times,serif" font-size="14.00">&#45;</text>
</g>
<!-- 1&#45;&gt;2 -->
<g id="edge2" class="edge"><title>1&#45;&gt;2</title>
<path fill="none" stroke="black" d="M52.6649,-39.8262C61.118,-42.071 70.568,-44.8588 79,-48 83.6153,-49.7194 88.4057,-51.742 93.0532,-53.8413"/>
<polygon fill="black" stroke="black" points="91.7514,-57.0968 102.29,-58.1853 94.7304,-50.7623 91.7514,-57.0968"/>
<text text-anchor="middle" x="75.5" y="-51.8" font-family="Times,serif" font-size="14.00">d</text>
</g>
<!-- 3 -->
<g id="node3" class="node"><title>3</title>
<ellipse fill="none" stroke="black" cx="235" cy="-18" rx="27" ry="18"/>
<text text-anchor="middle" x="235" y="-14.3" font-family="Times,serif" font-size="14.00">3</text>
</g>
<!-- 1&#45;&gt;3 -->
<g id="edge3" class="edge"><title>1&#45;&gt;3</title>
<path fill="none" stroke="black" d="M53.8648,-31.1564C66.8079,-29.7893 82.7214,-28.1929 97,-27 131.226,-24.1406 170.327,-21.6487 197.971,-20.0166"/>
<polygon fill="black" stroke="black" points="198.191,-23.5098 207.971,-19.4342 197.784,-16.5217 198.191,-23.5098"/>
<text text-anchor="middle" x="124" y="-30.8" font-family="Times,serif" font-size="14.00">a</text>
</g>
<!-- 2&#45;&gt;2 -->
<g id="edge4" class="edge"><title>2&#45;&gt;2</title>
<path fill="none" stroke="black" d="M115.431,-86.4099C113.831,-96.0879 116.688,-105 124,-105 128.57,-105 131.4,-101.519 132.489,-96.5449"/>
<polygon fill="black" stroke="black" points="135.99,-96.4374 132.569,-86.4099 128.99,-96.3818 135.99,-96.4374"/>
<text text-anchor="middle" x="124" y="-108.8" font-family="Times,serif" font-size="14.00">d</text>
</g>
<!-- 2&#45;&gt;3 -->
<g id="edge5" class="edge"><title>2&#45;&gt;3</title>
<path fill="none" stroke="black" d="M146.535,-58.924C162.658,-51.3801 184.947,-40.9512 202.99,-32.5095"/>
<polygon fill="black" stroke="black" points="204.936,-35.4632 212.51,-28.055 201.969,-29.1229 204.936,-35.4632"/>
<text text-anchor="middle" x="179.5" y="-51.8" font-family="Times,serif" font-size="14.00">*, a</text>
</g>
<!-- 3&#45;&gt;1 -->
<g id="edge6" class="edge"><title>3&#45;&gt;1</title>
<path fill="none" stroke="black" d="M210.012,-11.1522C182.481,-4.30457 136.091,4.13038 97,-4 83.377,-6.83341 69.1442,-12.5032 57.1679,-18.1582"/>
<polygon fill="black" stroke="black" points="55.5179,-15.0695 48.1017,-22.6359 58.6177,-21.3458 55.5179,-15.0695"/>
<text text-anchor="middle" x="124" y="-7.8" font-family="Times,serif" font-size="14.00">&#45;</text>
</g>
<!-- 3&#45;&gt;3 -->
<g id="edge7" class="edge"><title>3&#45;&gt;3</title>
<path fill="none" stroke="black" d="M226.431,-35.4099C224.831,-45.0879 227.688,-54 235,-54 239.57,-54 242.4,-50.5187 243.489,-45.5449"/>
<polygon fill="black" stroke="black" points="246.99,-45.4374 243.569,-35.4099 239.99,-45.3818 246.99,-45.4374"/>
<text text-anchor="middle" x="235" y="-57.8" font-family="Times,serif" font-size="14.00">a, d</text>
</g>
<!-- 4 -->
<g id="node4" class="node"><title>4</title>
<ellipse fill="none" stroke="black" cx="334" cy="-18" rx="27" ry="18"/>
<text text-anchor="middle" x="334" y="-14.3" font-family="Times,serif" font-size="14.00">4</text>
</g>
<!-- 3&#45;&gt;4 -->
<g id="edge8" class="edge"><title>3&#45;&gt;4</title>
<path fill="none" stroke="black" d="M262.25,-18C272.817,-18 285.184,-18 296.596,-18"/>
<polygon fill="black" stroke="black" points="296.729,-21.5001 306.729,-18 296.729,-14.5001 296.729,-21.5001"/>
<text text-anchor="middle" x="284.5" y="-21.8" font-family="Times,serif" font-size="14.00">=</text>
</g>
<!-- 5 -->
<g id="node5" class="node"><title>5</title>
<ellipse fill="none" stroke="black" cx="429" cy="-53" rx="27" ry="18"/>
<text text-anchor="middle" x="429" y="-49.3" font-family="Times,serif" font-size="14.00">5</text>
</g>
<!-- 4&#45;&gt;5 -->
<g id="edge9" class="edge"><title>4&#45;&gt;5</title>
<path fill="none" stroke="black" d="M357.989,-26.6517C369.279,-30.9005 383.078,-36.0937 395.431,-40.743"/>
<polygon fill="black" stroke="black" points="394.361,-44.0799 404.953,-44.3265 396.827,-37.5285 394.361,-44.0799"/>
<text text-anchor="middle" x="381.5" y="-38.8" font-family="Times,serif" font-size="14.00">&#45;</text>
</g>
<!-- 6 -->
<g id="node6" class="node"><title>6</title>
<ellipse fill="none" stroke="black" cx="526" cy="-23" rx="27" ry="18"/>
<text text-anchor="middle" x="526" y="-19.3" font-family="Times,serif" font-size="14.00">6</text>
</g>
<!-- 4&#45;&gt;6 -->
<g id="edge10" class="edge"><title>4&#45;&gt;6</title>
<path fill="none" stroke="black" d="M360.722,-14.6796C373.166,-13.2352 388.335,-11.7119 402,-11 425.967,-9.75136 432.089,-8.93626 456,-11 467.2,-11.9666 479.309,-13.8002 490.211,-15.7484"/>
<polygon fill="black" stroke="black" points="489.75,-19.2229 500.224,-17.6269 491.041,-12.3429 489.75,-19.2229"/>
<text text-anchor="middle" x="429" y="-14.8" font-family="Times,serif" font-size="14.00">d</text>
</g>
<!-- 5&#45;&gt;6 -->
<g id="edge11" class="edge"><title>5&#45;&gt;6</title>
<path fill="none" stroke="black" d="M453.973,-45.4297C465.423,-41.8139 479.313,-37.4274 491.763,-33.4959"/>
<polygon fill="black" stroke="black" points="492.882,-36.8128 501.364,-30.4639 490.774,-30.1378 492.882,-36.8128"/>
<text text-anchor="middle" x="477.5" y="-41.8" font-family="Times,serif" font-size="14.00">d</text>
</g>
<!-- 6&#45;&gt;6 -->
<g id="edge12" class="edge"><title>6&#45;&gt;6</title>
<path fill="none" stroke="black" d="M517.431,-40.4099C515.831,-50.0879 518.688,-59 526,-59 530.57,-59 533.4,-55.5187 534.489,-50.5449"/>
<polygon fill="black" stroke="black" points="537.99,-50.4374 534.569,-40.4099 530.99,-50.3818 537.99,-50.4374"/>
<text text-anchor="middle" x="526" y="-62.8" font-family="Times,serif" font-size="14.00">d</text>
</g>
</g>
</svg>
